<?xml version="1.0" ?><svg id="Layer_1" style="enable-background:new 0 0 56.7 56.7;" version="1.1" viewBox="0 0 56.7 56.7" xml:space="preserve" xmlns="http://www.w3.org/2000/svg" xmlns:xlink="http://www.w3.org/1999/xlink"><g><path d="M17,26.1v3.2L16.4,29v-2.5 M18.1,25.5v4.4l-0.6-0.3v-3.7 M19.2,24.9v5.7l-0.6-0.3v-5 M20.3,24.2v7l-0.6-0.3v-6.3    M21.4,23.6v8.3l-0.6-0.3v-7.6 M22.5,22.9v9.5l-0.6-0.3v-8.8 M23.6,22.3v10.8L23,32.8V22.7 M24.7,21.7v12.1l-0.6-0.3V22 M25.8,21   v13.4L25.2,34V21.4 M26.9,20.4V35l-0.6-0.3V20.7 M28.1,19.8v15.9l-0.6-0.3V20.1 M28.6,19.5V3l-14.3,8.3v16.5l0,0v16.5L28.6,36v16.5   l14.3-8.3V27.7L28.6,36l0,0L28.6,19.5 M15.9,28.7l-0.6-0.3v-1.2l0.6-0.3V28.7z M14.8,27.4V28l-0.5-0.3L14.8,27.4z"/><polygon points="28.6,19.5 42.9,27.7 42.9,11.2  "/></g></svg>