<?xml version="1.0" ?><svg id="Layer_1" style="enable-background:new 0 0 56.7 56.7;" version="1.1" viewBox="0 0 56.7 56.7" xml:space="preserve" xmlns="http://www.w3.org/2000/svg" xmlns:xlink="http://www.w3.org/1999/xlink"><g><path d="M35.2,20.3C35.2,20.3,35.2,20.3,35.2,20.3C35.2,20.3,35.2,20.2,35.2,20.3c-0.3-0.7-1-1.1-1.6-1.3c0.1,0.1,0.3,0.3,0.3,0.4   c-0.4-0.3-1-0.6-1.7-0.7c0,0,0.1,0.1,0.1,0.1c0.1,0.1,0.3,0.3,0.4,0.5c-0.6-0.2-1.3-0.4-2-0.2c0,0-0.1,0-0.1,0s0.1,0,0.1,0   c0.2,0.1,0.5,0.2,0.6,0.4c-1.1-0.2-2.2,0-2.8,0.4c0.1,0,0.1,0,0.1,0c0.2,0,0.7,0,0.9,0.2c-0.7,0.1-1.6,0.4-2.2,0.9   c0.1,0,0.6-0.1,0.8,0c-2.9,1.6-4.2,4.1-4.2,4.1c0.8-1.1,1.9-2.2,3.4-3.1C30.8,19.7,34.1,19.4,35.2,20.3z"/><path d="M18.6,29.2L18.6,29.2c1-3.6,3.7-7.2,6.5-9.6c0.7-0.6,2.1-1.5,2.1-1.5l-1.6-1.4l-0.1-0.8l2.2,1.8c0,0,0,0,0,0   c-0.1,0.1-0.2,0.2-0.3,0.2c-0.2,0.2-0.4,0.4-0.6,0.6c-0.3,0.3-0.6,0.6-0.9,0.9c-0.7,0.7-1.3,1.4-1.9,2.2c-1.1,1.4-1.5,2-2.2,3.3   c0,0,3.7-4.5,4.6-5.4c1.7-1.7,4.5-3.6,4.5-3.6c1.2-0.7,2.2-1.2,3-1.3c-1.4,0.1-2.8,0.8-3.9,1.5c0,0-1.6-1.4-1.7-1.4L27.6,15   l0.3,1.2L27.5,16l-0.1-0.5l0.2-0.6c-2.2-0.5-7,3.1-9.9,7.7c-1.2,1.9-2.8,5.2-1.9,6.8c0.2,0.3,1.3,1.1,1.3,1.1   C17.5,30,18,29.5,18.6,29.2z M29.3,16.5c-0.1,0.1-0.3,0.2-0.4,0.3l-0.2-0.8L29.3,16.5z M28.6,16.9c-0.2,0.1-0.3,0.2-0.5,0.3   l-0.9-0.8L28.6,16.9z"/><path d="M23,33.1c0-0.7-0.1-1.4-0.3-2.1c0,0-0.1,0.4-0.3,0.9c-0.2-1.5-0.8-1.9-0.8-1.9c-0.4-0.2-0.8-0.3-1.2-0.3   c-1.7,0-3,1.4-3,3.2s1.4,3.2,3,3.2c1.9,0,3.3-1.8,3-3.8C23.4,32.4,23.2,32.9,23,33.1z M20.1,31.4L20.1,31.4c-0.1,0-0.1,0-0.2,0   c0,0,0,0-0.1,0c0,0-0.1,0-0.1,0c0,0-0.3,0.1-0.5,0.4c-0.3,0.3-0.4,0.8-0.3,1.2c0,0.4,0.1,0.6,0.2,0.7c0.1,0.2-0.1,0.2-0.3,0   c0,0,0,0,0,0c-0.2-0.2-0.3-0.4-0.3-0.6c-0.2-0.9,0.2-1.9,1.2-2.2c0.1,0,0.1,0,0.2,0h0l0,0c0,0,0,0,0,0c0.1,0,0.4-0.1,0.8,0   c0.4,0.1,0.7,0.3,1,0.5l0,0c0.2,0.2,0.3,0.5,0.3,0.7l0,0c0,0.1-0.1,0.2-0.1,0.3c0,0-0.1,0-0.1,0c-0.1-0.1,0-0.2-0.2-0.4   C21.3,31.6,20.8,31.3,20.1,31.4z M21.1,34.9c-0.4,0-0.7-0.3-0.6-0.3c0,0,0.1,0,0.2,0c0.6,0.1,0.9-0.3,1-0.6c0,0,0-0.1,0-0.2   c0-0.1,0-0.1,0-0.2c-0.1-0.4-0.5-0.4-0.8-0.7c-0.2-0.3-0.2-0.6,0-0.8c0.2-0.2,0.5-0.1,0.5-0.1c0,0-0.1,0.1-0.1,0.1   c-0.1,0.1-0.1,0.1-0.1,0.3c0,0.1,0,0.1,0.1,0.2c0.2,0.2,0.9,0.3,1,0.9C22.3,34.2,21.8,34.9,21.1,34.9z"/><path d="M41.4,33.3c-0.2,0-0.4,0.1-0.4,0.1s0-1-0.5-1.8c-0.4,0.4-1.4,1.2-2.7,1.8c-1.2,0.6-2.9,1.1-4.9,1.2h0   c-0.6,0-0.9-0.1-1.1,0.6c0,0.1,0,0.1,0,0.2c2.2,0.7,5.8-0.7,6.1-0.7c0,0,0,0,0,0c0.2,0-1.9,1.4-4.8,1.4c-0.5,0-0.9,0-1.3-0.1   c0.2,0.6,0.6,0.8,1.1,0.9c0.4,0.1,0.9,0.1,0.9,0.1c4.1,0.1,7.4-3,7.6-3.2c0,0,0,0.1,0,0.1c-0.6,1.3-4.1,3.8-7.5,3.7l0,0   c-0.8,0-1.8-0.2-2.3-0.8c-0.8-1-0.4-2.6,0.9-2.7c0,0,0.3,0,0.4,0c3.1-0.1,6-1.3,8-3.7c0.3-0.3,0-0.8-0.6-0.8c0,0,0,0,0,0s0,0,0,0   c-0.7-0.8-1.3-1-1.9-1.3c-1.2-0.6-1.1-0.1-1.3-3c-0.1-0.8-0.2-1.8-0.9-2.3c-0.2-0.1-0.4-0.2-0.6-0.2c-0.2,0-0.3,0-0.3,0.1   c-0.4,0.1-0.6,0.3-0.9,0.5c-1.3,1.2-2.3,0.8-3.8,0.8c-1.4,0-2.7,1-2.9,2.5l0,0c-0.1,0.8,0,1.6,0.1,2c0,0-0.4-0.3-0.6-0.5   c0.2,1.4,1.5,2.3,1.5,2.3c-0.2,0-0.5,0-0.5,0c0,0,0.7,0.6,1.3,0.8c-0.2,0.1-1,0.9-1.4,2c-0.4,1-0.2,2.3-0.2,2.3l0.3-0.5   c0,0-0.2,1.1,0.2,2.3c0.1-0.3,0.5-0.9,0.5-0.9s-0.1,1.2,0.5,2.2c0-0.2,0.1-0.8,0.1-0.8s0.3,1.1,1.1,1.8c1.5,1.3,5.4,1.5,8.3-0.8   c2.3-1.8,2.8-4.1,2.8-4.1C42.3,34,42.2,33.3,41.4,33.3z M36.6,28.6c0,0.2-0.2,0.4-0.4,0.4c-0.2,0-0.3-0.2-0.2-0.5s0.2-0.4,0.4-0.4   S36.7,28.3,36.6,28.6z M35.5,25.8L35.5,25.8C35.5,25.8,35.5,25.8,35.5,25.8c0.4-0.1,0.8,0.8,0.9,1.6c-0.3-0.1-0.6-0.2-1-0.2   c-0.1-0.3-0.1-0.5-0.1-0.8C35.2,26.2,35.3,25.8,35.5,25.8z M34.5,28.8c0.1-0.2,0.4-0.2,0.6-0.1s0.4,0.4,0.3,0.5   c-0.1,0.2-0.4,0.2-0.6,0.1S34.4,28.9,34.5,28.8z M30,28.4c-0.2,0.1-0.4,0.2-0.5,0.1c-0.1,0,0-0.3,0.3-0.5c0.6-0.4,1.3-0.6,2-0.3   c0.3,0.1,0.6,0.3,0.8,0.6c0.1,0.1,0.1,0.2,0.1,0.2c-0.1,0.1-0.2,0-0.5-0.1C31.4,28.1,30.9,28.1,30,28.4z M30.7,29.5   c0,0,0-0.2,0.1-0.3c0.1-0.1,0.3-0.2,0.4-0.3c0,0,0,0,0.1,0c0.1,0,0.1,0,0.2-0.1c0.6-0.1,1.1,0.2,1,0.3c0,0-0.1,0-0.3,0   c-0.3,0-0.7,0-1.2,0.2C30.8,29.5,30.7,29.5,30.7,29.5z"/><path d="M28.8,3.7C15.1,3.7,4.1,14.8,4.1,28.5c0,13.7,11.1,24.8,24.8,24.8c13.7,0,24.8-11.1,24.8-24.8C53.6,14.8,42.5,3.7,28.8,3.7   z M42.6,35.1c0,0.1-2.2,8.5-10.9,8.5c-7.5,0-11-6.5-11-6.5c-0.5,0-1.1-0.1-1.6-0.2c-2.2-0.8-3.2-3.3-2.5-5.4l-1.2-0.9   C10.8,27,24,10.7,28.7,14.4c0,0,1.1,0.9,1.1,0.9c1.7-1,3.3-1.6,4.7-1.6c1,0,1.8,0.3,2.3,0.9c1.2,1.3,0.8,3.8-0.9,6.4   c0.4,0.3,0.7,0.8,0.9,1.3c0.5,0.4,0.9,1,1,1.9c0.2,1,0.2,2.3,0.3,2.9c0.4,0.2,0.3,0.1,0.7,0.3c0.5,0.2,1.1,0.6,1.8,1.2   c1.2,0.3,1.6,1.6,0.9,2.4c0,0-0.1,0.1-0.2,0.2c0,0.1,0.2,0.4,0.4,1.2c0.5,0.1,0.9,0.4,1.1,0.9C43.3,34.1,42.6,35.1,42.6,35.1z"/></g></svg>