<?xml version="1.0" ?><svg enable-background="new -822 823.1 56.7 56.7" height="56.7px" id="Layer_1" version="1.1" viewBox="-822 823.1 56.7 56.7" width="56.7px" xml:space="preserve" xmlns="http://www.w3.org/2000/svg" xmlns:xlink="http://www.w3.org/1999/xlink"><g><path d="M-791.3,847.3c0-0.6-0.3-1-0.7-1.3c-0.4-0.3-1-0.3-1.7-0.3h-3.2v5.8h1.4v-2.1h1.5c0.5,0,0.8,0,1,0.2   c0.3,0.3,0.2,0.8,0.2,1.1l0,0.7h1.4v-1.1c0-0.5,0-0.8-0.2-1.1c-0.1-0.2-0.4-0.4-0.7-0.5C-791.9,848.7-791.3,848.2-791.3,847.3z    M-793.1,848.1c-0.2,0.1-0.4,0.1-0.7,0.1h-1.7v-1.3h1.7c0.2,0,0.5,0,0.7,0.1c0.2,0.1,0.3,0.3,0.3,0.5   C-792.8,847.8-793,848-793.1,848.1z"/><rect height="5.8" width="1.4" x="-790.5" y="845.7"/><path d="M-785.5,846.9h1.3v-1.2h-1.3c-1,0-1.7,0.2-2.1,0.7c-0.6,0.6-0.7,1.4-0.7,2.3c0,1.1,0.3,1.7,0.7,2.2c0.5,0.5,1.3,0.6,2,0.6   h1.6l0.5-1.3h2.9l0.5,1.3h2.8v-4.4l2.6,4.4h2v-5.8h-1.4v4l-2.4-4h-2.1v5.5l-2.4-5.5h-2.1l-2,4.6h-0.6c-0.4,0-0.8-0.1-1-0.3   c-0.3-0.3-0.4-0.7-0.4-1.4c0-0.6,0.2-1.1,0.4-1.3C-786.3,847-786,846.9-785.5,846.9z M-782.1,846.7l1,2.3h-1.9L-782.1,846.7z"/><path d="M-807.5,849.6l-1.8-3.9h-2.3v5.5l-2.4-5.5h-2.1l-2.1,5c0,0.3,0,0.5-0.1,0.8h1.2l0.5-1.3h2.9l0.5,1.3h2.8v-4.6l2,4.6h1.2   l2-4.6l0,4.6h1.4v-5.8h-2.3L-807.5,849.6z M-816,849l0.9-2.3l1,2.3H-816z"/><polygon points="-797.9,846.9 -797.9,845.7 -802.5,845.7 -802.5,851.5 -797.9,851.5 -797.9,850.3 -801.1,850.3 -801.1,849.1    -797.9,849.1 -797.9,847.9 -801.1,847.9 -801.1,846.9  "/><path d="M-771.6,856.9h2.3c0.1-0.4,0.1-0.8,0.2-1.2h-2.7c-1.5,0-2,0.9-2,1.7c0,1.8,1.6,1.8,2.9,1.8c0.2,0,0.4,0,0.5,0.1   c0.1,0.1,0.2,0.2,0.2,0.4c0,0.2-0.1,0.3-0.2,0.4c-0.1,0.1-0.3,0.1-0.6,0.1h-2.7v1.2h2.7c0.2,0,0.3,0,0.4,0c0.4-1.1,0.7-2.2,1-3.3   c-0.3-0.1-0.7-0.2-1.2-0.2l-0.8,0c-0.2,0-0.4,0-0.5-0.1c-0.2-0.1-0.3-0.2-0.3-0.4c0-0.2,0.1-0.3,0.2-0.4   C-772.1,856.9-771.9,856.9-771.6,856.9z"/><path d="M-771.1,862.6h-3.6v-0.5c-0.4,0.3-1.2,0.5-1.9,0.5H-788v-1.9c0-0.2,0-0.2-0.3-0.2h-0.2v2.1h-3.7v-2.2   c-0.6,0.3-1.3,0.3-1.9,0.3h-0.4v1.9l-4.5,0l-1.1-1.3l-1.2,1.3h-7.3v-8.1h7.5l1.1,1.2l1.1-1.2h5c0.6,0,1.5,0.1,2,0.5v-0.5h4.5   c0.4,0,1.3,0.1,1.9,0.5v-0.5h6.8v0.5c0.3-0.3,1.1-0.5,1.7-0.5h3.8v0.5c0.4-0.3,1-0.5,1.7-0.5h2.6v0.3c0.1-0.6,0.1-1.3,0.1-2   c0-13.6-11-24.6-24.6-24.6c-10.7,0-19.7,6.8-23.2,16.3h3.6l0.5,1v-1h4.2l0.9,2.1l0.9-2.1h13.5c0.6,0,1.2,0.1,1.6,0.5v-0.5h3.7v0.5   c0.6-0.3,1.4-0.5,2.3-0.5h5.3l0.5,1v-1h4l0.5,1v-1h3.9v8.1h-3.9l-0.7-1.2v1.2h-4.9l-0.5-1.3h-1.2l-0.5,1.3h-2.5   c-1,0-1.7-0.2-2.2-0.5v0.5h-6v-1.8c0-0.3,0-0.3-0.2-0.3h-0.2l0,2.1H-806v-1l-0.4,1h-2.4l-0.4-1v1h-4.7l-0.5-1.3h-1.2l-0.5,1.3h-2.1   c0,0.1,0,0.2,0,0.3c0,13.6,11,24.6,24.6,24.6c10.1,0,18.8-6.1,22.6-14.9C-771.1,862.6-771.1,862.6-771.1,862.6z"/><path d="M-785.4,857.3c0-0.7-0.3-1-0.7-1.3c-0.5-0.2-1-0.3-1.7-0.3h-3.2v5.8h1.4v-2.1h1.5c0.5,0,0.8,0,1,0.3   c0.3,0.3,0.2,0.8,0.2,1.1v0.7h1.4v-1.2c0-0.5,0-0.8-0.2-1.1c-0.1-0.2-0.4-0.4-0.7-0.5C-786,858.7-785.4,858.2-785.4,857.3z    M-787.2,858.1c-0.2,0.1-0.4,0.1-0.7,0.1h-1.7v-1.3h1.7c0.2,0,0.5,0,0.7,0.1c0.2,0.1,0.3,0.3,0.3,0.5   C-786.9,857.8-787,858-787.2,858.1z"/><path d="M-776.4,860.3h-2.7v1.2h2.7c1.4,0,2.2-0.6,2.2-1.8c0-0.6-0.1-1-0.4-1.2c-0.3-0.3-0.8-0.4-1.6-0.5l-0.7,0   c-0.2,0-0.4,0-0.5-0.1c-0.2-0.1-0.3-0.2-0.3-0.4c0-0.2,0.1-0.3,0.2-0.4c0.1-0.1,0.3-0.1,0.6-0.1h2.5v-1.2h-2.8c-1.5,0-2,0.9-2,1.7   c0,1.8,1.6,1.8,2.9,1.8c0.2,0,0.4,0,0.5,0.1c0.1,0.1,0.2,0.2,0.2,0.4c0,0.2-0.1,0.3-0.2,0.4C-776,860.2-776.2,860.3-776.4,860.3z"/><path d="M-793.9,855.7h-4.4l-1.8,1.9l-1.7-1.9h-5.6v5.8h5.5l1.8-1.9l1.7,1.9h2.7v-1.9h1.7c1.2,0,2.4-0.3,2.4-1.9   C-791.6,856-792.8,855.7-793.9,855.7z M-802.7,860.3h-3.4v-1.2h3v-1.2h-3v-1.1h3.5l1.5,1.7L-802.7,860.3z M-797.1,861l-2.1-2.4   l2.1-2.3V861z M-794,858.4h-1.8v-1.5h1.8c0.5,0,0.8,0.2,0.8,0.7C-793.1,858.1-793.4,858.4-794,858.4z"/><polygon points="-780,856.9 -780,855.7 -784.6,855.7 -784.6,861.5 -780,861.5 -780,860.3 -783.2,860.3 -783.2,859.1 -780,859.1    -780,857.9 -783.2,857.9 -783.2,856.9  "/></g></svg>