<?xml version="1.0" ?><svg id="Layer_1" style="enable-background:new 0 0 56.69 56.69;" version="1.1" viewBox="0 0 56.69 56.69" xml:space="preserve" xmlns="http://www.w3.org/2000/svg" xmlns:xlink="http://www.w3.org/1999/xlink"><style type="text/css">
	.st0{fill:#010101;}
</style><g id="XMLID_2_"><path class="st0" d="M10.2046,37.307c0.3803,0.7244,1.0539,1.1714,1.7951,1.197   c0.0411,0.0026,0.0786,0.0044,0.1184,0.0044c0.4055,0,1.0301-0.1926,7.7727-2.3587c2.3353-0.7456,2.966-0.947,3.1538-1.0097   c0.9744-0.2491,1.6471-1.1378,1.7138-2.2659c0.0618-1.1502-0.5579-2.1705-1.5305-2.5345c-1.4983-0.6104-2.0261-0.826-2.2377-0.9011   l0.0031-0.0071c-8.0337-3.3146-8.0726-3.3154-8.5351-3.3207c-0.7496-0.0345-1.4338,0.3551-1.8808,1.0592   c-0.8441,1.3569-1.1683,5.3358-0.894,7.9904C9.7921,36.1338,9.9674,36.8555,10.2046,37.307z" id="XMLID_7_"/><path class="st0" d="M27.0857,37.1974c-1.0729-0.4143-2.2315-0.1413-2.8777,0.6679c0,0-1.0513,1.2483-1.4267,1.6917   l-0.1352,0.159c-5.6229,6.5991-5.6428,6.6565-5.7943,7.0947c-0.1078,0.2924-0.1453,0.5928-0.1122,0.8843   c0.0398,0.4232,0.2248,0.8445,0.5371,1.2209c1.2465,1.4806,6.6432,3.5345,9.0408,3.5345c0.1815,0,0.3463-0.0115,0.4903-0.0362   c0.8251-0.1502,1.4263-0.6228,1.697-1.3454c0.1493-0.4364,0.1612-0.4717,0.1833-8.2298c0,0,0.0172-3.2156,0.0186-3.3128   C28.7708,38.5155,28.1343,37.6011,27.0857,37.1974z" id="XMLID_6_"/><path class="st0" d="M27.6003,5.771L27.591,5.7286c-0.2072-0.7553-0.8013-1.3074-1.6308-1.5142   c-2.2107-0.5495-10.2895,1.7226-11.8492,3.3322c-0.5671,0.5901-0.7973,1.3578-0.5844,2.1387   c0.2341,0.4815,9.0271,14.3183,10.0258,15.8899c0.8878,1.4382,1.8441,2.1617,2.8499,2.1617c0.2239,0,0.4501-0.0353,0.6785-0.1078   c1.2558-0.386,1.8424-1.6202,1.743-3.667C28.6847,20.7651,27.724,6.4848,27.6003,5.771z" id="XMLID_5_"/><path class="st0" d="M33.1128,31.6708c-0.6157-0.1537-1.1877-0.5601-1.5809-1.1626   c-0.6131-0.9399-0.5937-2.0504,0.0495-2.8304c0.087-0.1122,1.9651-2.6705,1.9651-2.6705c4.5089-6.1671,4.6021-6.2899,4.9882-6.5416   c0.6325-0.4267,1.402-0.4611,2.1599-0.0936c1.8362,0.8949,5.4299,6.198,5.6556,8.3447l0.004,0.0353l-0.0013,0.083   c0.0495,0.8083-0.2663,1.5027-0.8909,1.9276c-0.3865,0.2509-0.4656,0.3021-8.865,2.3366   C36.5969,31.0992,34.2317,31.8274,33.1128,31.6708z" id="XMLID_4_"/><path class="st0" d="M45.8568,38.7231c-0.3609-0.2694-0.3905-0.2915-7.7762-2.7191   c-1.19-0.3922-3.0071-0.993-3.141-1.0442c-0.9417-0.3613-2.0062-0.0371-2.7107,0.8304c-0.7275,0.8869-0.8238,2.0795-0.2474,2.9577   l1.2562,2.0442c4.395,7.1388,4.5836,7.41,4.9577,7.7024c0.3626,0.2845,0.784,0.4276,1.2332,0.4276   c0.2915,0,0.5945-0.0601,0.9011-0.1829c1.9294-0.7703,5.978-5.9144,6.2788-7.9807C46.7212,39.9369,46.4514,39.1983,45.8568,38.7231   z" id="XMLID_3_"/></g></svg>