<?xml version="1.0" ?><svg id="Layer_1" style="enable-background:new 0 0 56.7 56.7;" version="1.1" viewBox="0 0 56.7 56.7" xml:space="preserve" xmlns="http://www.w3.org/2000/svg" xmlns:xlink="http://www.w3.org/1999/xlink"><g><polygon points="19.3,28.3 19.3,27.9 18.9,28.1  "/><polygon points="19.6,28.5 20,28.7 20,27.4 19.6,27.7  "/><path d="M28.6,3C14.9,3,3.8,14,3.8,27.7c0,13.7,11.1,24.8,24.8,24.8c13.7,0,24.8-11.1,24.8-24.8C53.3,14,42.2,3,28.6,3z M28.4,22.6   v11l0,0l9.5-5.5v11l-9.5,5.5v-11L18.9,39v-11l0,0v-11l9.5-5.5L28.4,22.6 M27.7,23v10.1l0.4,0.2V22.8 M26.9,23.4v9.3l0.4,0.2v-9.7    M26.2,23.8v8.4l0.4,0.2v-8.9 M25.5,24.3v7.6l0.4,0.2v-8 M24.7,24.7v6.7l0.4,0.2v-7.2 M24,25.1V31l0.4,0.2v-6.3 M23.3,25.5v5   l0.4,0.2v-5.5 M22.5,26v4.2l0.4,0.2v-4.6 M21.8,26.4v3.3l0.4,0.2v-3.8 M21.1,26.8v2.5l0.4,0.2v-3 M20.3,27.2v1.6l0.4,0.2V27    M37.9,28.1l-9.5-5.5l9.5-5.5V28.1z"/></g></svg>