<?xml version="1.0" ?><svg enable-background="new -1163 1657.697 56.693 56.693" height="56.693px" id="Layer_1" version="1.1" viewBox="-1163 1657.697 56.693 56.693" width="56.693px" xml:space="preserve" xmlns="http://www.w3.org/2000/svg" xmlns:xlink="http://www.w3.org/1999/xlink"><path d="M-1134.653,1662.9163c-13.5996,0-24.625,11.0234-24.625,24.623s11.0254,24.625,24.625,24.625  c13.5985,0,24.6239-11.0254,24.6239-24.625S-1121.0544,1662.9163-1134.653,1662.9163z M-1134.9293,1680.1403  c-0.9393,0-1.7008,0.7612-1.7008,1.7007l-0.0081,10.2495c-0.0554,3.9194-3.2432,7.0808-7.1763,7.0808  c-3.9679,0-7.1843-3.2162-7.1843-7.1842c0-0.0514,0-4.4565,0-4.4565h5.4982v4.3979c0,0.9391,0.7615,1.7008,1.7008,1.7008  c0.9392,0,1.7008-0.7617,1.7008-1.7008v-10.377c0.1381-3.8461,3.2896-6.9243,7.1697-6.9243c3.894,0,7.054,3.1011,7.1696,6.9663  v2.2717l-3.2729,0.9767l-2.1959-1.0227v-1.9783C-1133.2286,1680.9015-1133.9901,1680.1403-1134.9293,1680.1403z   M-1118.8597,1691.9871c0,3.968-3.2167,7.1842-7.1844,7.1842c-3.9463,0-7.15-3.1824-7.1844-7.1201v-4.4785l2.1959,1.0229  l3.2729-0.9771v4.5151c0,0.9393,0.7616,1.7008,1.7009,1.7008s1.7008-0.7615,1.7008-1.7008v-4.6031h5.4983  C-1118.8597,1687.5305-1118.8597,1691.9357-1118.8597,1691.9871z"/></svg>