<?xml version="1.0" ?><svg enable-background="new -1163 1657.697 56.693 56.693" height="56.693px" id="Layer_1" version="1.1" viewBox="-1163 1657.697 56.693 56.693" width="56.693px" xml:space="preserve" xmlns="http://www.w3.org/2000/svg" xmlns:xlink="http://www.w3.org/1999/xlink"><path d="M-1132.0631,1682.2316l3.3447,1.5577l4.9854-1.4877v-3.4603c-0.1763-5.8875-4.9893-10.6108-10.9205-10.6108  c-5.9102,0-10.7103,4.6886-10.9208,10.5469v15.8059c0,1.4304-1.1599,2.5907-2.5906,2.5907s-2.5907-1.1603-2.5907-2.5907v-6.6987  h-8.3746c0,0,0,6.7097,0,6.788c0,6.0439,4.8992,10.9429,10.943,10.9429c5.9907,0,10.8463-4.8153,10.9308-10.7853l0.0122-15.6118  c0-1.4309,1.1599-2.5905,2.5907-2.5905c1.4305,0,2.5905,1.1595,2.5905,2.5905V1682.2316z M-1118.5516,1687.8845v7.0112  c0,1.4308-1.1599,2.5908-2.5907,2.5908c-1.4307,0-2.5907-1.16-2.5907-2.5908v-6.8772l-4.9854,1.488l-3.3447-1.558v6.8215  c0.0525,5.9979,4.9323,10.8452,10.9432,10.8452c6.0436,0,10.9431-4.8989,10.9431-10.9429c0-0.0782,0-6.788,0-6.788H-1118.5516z" id="icon_2_"/></svg>