<?xml version="1.0" ?><svg enable-background="new -822 823.1 56.7 56.7" height="56.7px" id="Layer_1" version="1.1" viewBox="-822 823.1 56.7 56.7" width="56.7px" xml:space="preserve" xmlns="http://www.w3.org/2000/svg" xmlns:xlink="http://www.w3.org/1999/xlink"><g><path d="M-787.2,850.2c-1.3,0-1.7,1-1.8,1.9c0.4-0.1,0.8-0.1,1.2-0.1c0.8,0,1.6,0.2,2.2,0.5C-785.6,851.6-785.8,850.2-787.2,850.2z   "/><path d="M-793.7,828.3c-13.6,0-24.6,11-24.6,24.6c0,13.6,11,24.6,24.6,24.6c13.6,0,24.6-11,24.6-24.6   C-769,839.3-780.1,828.3-793.7,828.3z M-807.3,843.5l5.9-5.8c0,0,0,0,0,0l-0.1,0.2c-0.2,0.4-0.3,1-0.3,1.5v0c0,0.7,0,3.3,0,3.3   c0,0.2-0.1,0.3-0.3,0.3h-3c0,0,0,0,0,0c-0.7,0-1.4,0.1-1.9,0.4C-807.1,843.4-807.2,843.5-807.3,843.5   C-807.4,843.5-807.3,843.5-807.3,843.5z M-780.9,856.2c-0.4,4.6-1.1,7.3-1.4,8.2c-1.5,4.5-2.7,4.6-6.2,4.6c-4.5,0-5.9-0.7-5.9-4.3   c0-4,1.9-4.1,5-4c0.5,0,0,0.5,0,1.2c0,0.8,0.3,1.1-0.1,1.1c-0.9,0-2.2-0.1-2.2,1.1c0,1.5,0.7,1.5,2.7,1.5c2.4,0,2.9-0.3,2.9-2.5   c0-3.6-1-4.2-2.4-4.3c-1.6-0.2-3.1-0.4-3.8-0.7c-1.9-0.7-1.7-3.1-1.7-3.8c0-0.1-0.1-0.1-0.1,0c0,1-0.1,2.4-0.6,3.9   c-0.2,0.4-0.3,0.7-0.3,0.7c-0.6,1.2-1.6,0.8-3.1,0.6c-1.6-0.2-4.9-0.9-6.4-1.5c-0.7-0.3-0.9-0.6-1.2-1.3c-0.9-1.8-1.8-7.6-1.9-8.5   c-0.1-1.1-0.1-1.6-0.1-1.6c0-0.7,0.1-1.4,0.5-1.9c0.2-0.3,0.5-0.5,0.8-0.7c0.4-0.2,0.9-0.3,1.5-0.3h3c0.7,0,1.2-0.5,1.2-1.2   c0,0,0-0.7,0-1.4c0-0.7,0-1.6,0-1.9c0-0.6,0.2-1.1,0.4-1.4c0.4-0.5,1-0.9,1.6-1c0.7-0.2,3.6-0.4,5.5,0.4c0.7,0.3,1.3,1.1,1.5,2   c1.1,0,2.9,0,4.4,0.1c1.9,0.2,3.4,0.5,4.2,0.8c0.7,0.2,1.5,0.9,1.7,2.2C-781.2,844.6-780.7,853.3-780.9,856.2z"/></g></svg>