<?xml version="1.0" ?><svg enable-background="new -822 823.1 56.7 56.7" height="56.7px" id="Layer_1" version="1.1" viewBox="-822 823.1 56.7 56.7" width="56.7px" xml:space="preserve" xmlns="http://www.w3.org/2000/svg" xmlns:xlink="http://www.w3.org/1999/xlink"><g><path d="M-808.4,853.5c0,0.4,0.2,0.6,0.6,0.6c0.7,0,1.1-0.6,1.2-1.5c-0.2,0-0.2,0-0.4,0C-807.9,852.6-808.4,852.9-808.4,853.5z"/><path d="M-782.8,853.5c0,0.4,0.2,0.6,0.6,0.6c0.7,0,1.1-0.6,1.2-1.5c-0.2,0-0.2,0-0.4,0C-782.4,852.6-782.8,852.9-782.8,853.5z"/><path d="M-795,850.5c-0.5,0-0.9,0.4-1,1.1h1.8C-794.2,851.4-794,850.5-795,850.5z"/><path d="M-773.3,850.7c-0.7,0-1.3,0.9-1.3,2.1c0,0.8,0.3,1.2,0.8,1.2c0.8,0,1.3-0.9,1.3-2.1C-772.4,851.1-772.7,850.7-773.3,850.7z   "/><path d="M-783.7,836.5c-3.8,0-7.3,1.4-10,3.8c-2.6-2.4-6.1-3.8-9.9-3.8c-8.2,0-14.9,6.7-14.9,14.9c0,8.2,6.7,14.9,14.9,14.9   c3.8,0,7.3-1.4,9.9-3.8c2.6,2.4,6.1,3.8,10,3.8c8.2,0,14.9-6.7,14.9-14.9C-768.8,843.2-775.5,836.5-783.7,836.5z M-812.2,855.4   l0.9-5.8l-2.1,5.8h-1.1l-0.1-5.8l-1,5.8h-1.5l1.3-7.6h2.3l0.1,4.7l1.6-4.7h2.5l-1.3,7.6H-812.2z M-806.8,855.4l0-0.6   c-0.4,0.5-1,0.7-1.7,0.7c-0.9,0-1.5-0.7-1.5-1.7c0-1.5,1-2.4,2.8-2.4c0.2,0,0.4,0,0.7,0c0.1-0.2,0.1-0.3,0.1-0.4   c0-0.4-0.3-0.6-1-0.6c-0.8,0-1.4,0.2-1.7,0.3c0-0.1,0.2-1.4,0.2-1.4c0.8-0.2,1.3-0.3,1.9-0.3c1.4,0,2.1,0.6,2.1,1.8   c0,0.3,0,0.7-0.1,1.2c-0.1,0.9-0.4,2.8-0.5,3.3C-805.7,855.4-806.8,855.4-806.8,855.4z M-802,851.7c0.8,0.4,1.1,0.9,1.1,1.7   c0,1.4-0.8,2.1-2.5,2.1c-1,0-1.3-0.1-1.7-0.2c0-0.1,0.2-1.4,0.2-1.4c0.5,0.2,1,0.2,1.5,0.2c0.6,0,0.9-0.2,0.9-0.6   c0-0.3-0.1-0.4-0.8-0.7c-0.9-0.4-1.2-0.9-1.2-1.7c0-1.1,0.6-2.1,2.4-2.1c0.4,0,1,0.1,1.4,0.1l-0.2,1.4c-0.4-0.1-0.8-0.1-1.2-0.1   c-0.5,0-0.8,0.2-0.8,0.5C-802.8,851.3-802.7,851.4-802,851.7z M-798.5,854c0.2,0,0.3,0,0.4-0.1l-0.2,1.4c-0.4,0.1-0.8,0.2-1.2,0.2   c-0.8,0-1.3-0.5-1.3-1.4c0-0.3,0.1-1,0.2-1.6c0.1-0.6,0.7-4.2,0.7-4.2h1.6l-0.2,0.9h0.8l-0.2,1.5h-0.8c-0.2,1.2-0.5,2.6-0.5,2.8   C-799,853.8-798.8,854-798.5,854z M-794.7,854.1c0.6,0,1.1-0.1,1.7-0.4l-0.3,1.5c-0.6,0.2-1.1,0.2-1.7,0.2c-1.8,0-2.7-0.9-2.7-2.7   c0-2.1,1.2-3.7,2.8-3.7c1.3,0,2.2,0.9,2.2,2.2c0,0.5-0.1,0.9-0.2,1.5h-3.2C-796.2,853.7-795.6,854.1-794.7,854.1z M-791.1,855.4   h-1.6l0.1-0.4c0.3-1.9,0.6-3.8,0.8-5.7h1.5c0,0.3-0.1,0.6-0.1,0.9c0.5-0.7,0.9-1.1,1.6-1c-0.2,0.3-0.5,1-0.6,1.8   C-790.4,850.9-790.5,851.6-791.1,855.4z M-784.9,855.3c-0.6,0.2-1,0.2-1.4,0.2c-1.7,0-2.8-1.3-2.8-3.3c0-2.7,1.5-4.6,3.7-4.6   c0.7,0,1.5,0.3,1.8,0.4l-0.3,1.6c-0.6-0.3-1-0.4-1.4-0.4c-1.2,0-2.1,1.2-2.1,2.8c0,1.1,0.6,1.8,1.5,1.8c0.4,0,0.8-0.1,1.4-0.4   L-784.9,855.3z M-779.9,855.4c-0.2,0-1.3,0-1.3,0l0-0.6c-0.4,0.5-1,0.7-1.7,0.7c-0.9,0-1.5-0.7-1.5-1.7c0-1.5,1-2.4,2.8-2.4   c0.2,0,0.4,0,0.7,0c0.1-0.2,0.1-0.3,0.1-0.4c0-0.4-0.3-0.6-1-0.6c-0.8,0-1.4,0.2-1.7,0.3c0-0.1,0.2-1.4,0.2-1.4   c0.8-0.2,1.3-0.3,1.9-0.3c1.4,0,2.1,0.6,2.1,1.8c0,0.3,0,0.7-0.1,1.2C-779.6,853-779.9,854.9-779.9,855.4z M-777.7,855.4h-1.6   l0.1-0.4c0.3-1.9,0.6-3.8,0.8-5.7h1.5c0,0.3-0.1,0.6-0.1,0.9c0.5-0.7,0.9-1.1,1.6-1c-0.2,0.3-0.5,1-0.6,1.8   C-777,850.9-777.2,851.6-777.7,855.4z M-772.9,855.4l0.1-0.6c-0.4,0.5-0.9,0.7-1.5,0.7c-1.2,0-2-1-2-2.6c0-2,1.2-3.8,2.6-3.8   c0.6,0,1.1,0.3,1.5,0.8l0.4-2.2h1.6l-1.2,7.6H-772.9z"/></g></svg>