<?xml version="1.0" ?><svg enable-background="new -822 823.1 56.7 56.7" height="56.7px" id="Layer_1" version="1.1" viewBox="-822 823.1 56.7 56.7" width="56.7px" xml:space="preserve" xmlns="http://www.w3.org/2000/svg" xmlns:xlink="http://www.w3.org/1999/xlink"><path d="M-793.7,828.3c-13.6,0-24.6,11-24.6,24.6c0,13.6,11,24.6,24.6,24.6c13.6,0,24.6-11,24.6-24.6  C-769,839.3-780.1,828.3-793.7,828.3z M-783.8,842.1l-5.8,11.5l0.6,0.7h5.3v8.1h-9.7l-1,0.6l-2.6,5.3l-0.6,0.6h-5.8v-6l5.8-11.5  l-0.4-0.4h-5.4v-8.3h9.8l0.8-0.7l2.7-5.3l0.7-0.5h5.7V842.1z"/></svg>