<?xml version="1.0" ?><svg enable-background="new -822 823.1 56.7 56.7" height="56.7px" id="Layer_1" version="1.1" viewBox="-822 823.1 56.7 56.7" width="56.7px" xml:space="preserve" xmlns="http://www.w3.org/2000/svg" xmlns:xlink="http://www.w3.org/1999/xlink"><g><path d="M-770.9,859.5h-2.7v1.2h2.7c0.9,0,1.6-0.3,1.9-0.7c0.2-0.3,0.3-0.6,0.3-1.1c0-0.5-0.1-0.8-0.3-1.1c0,0-0.1-0.1-0.1-0.1   c-0.3-0.3-0.8-0.5-1.6-0.5l-0.8,0c-0.2,0-0.4,0-0.5-0.1c-0.2-0.1-0.3-0.2-0.3-0.4c0-0.2,0.1-0.3,0.2-0.4c0.1-0.1,0.3-0.1,0.6-0.1   h2.5v-29.5h-49.6v20.9l1.7-3.9h3.6l0.5,1v-1h4.3l0.9,2.1l0.9-2.1h13.5c0.6,0,1.2,0.1,1.6,0.5v-0.5h3.7v0.5c0.6-0.3,1.4-0.5,2.3-0.5   h5.4l0.5,1v-1h4l0.5,1v-1h3.9v8.1h-3.9l-0.7-1.2v1.2h-4.9l-0.5-1.3h-1.2l-0.5,1.3h-2.5c-1,0-1.7-0.2-2.2-0.5v0.5h-6V850   c0-0.3,0-0.3-0.2-0.3h-0.2l0,2.1h-11.6v-1l-0.4,1h-2.4l-0.4-1v1h-4.7l-0.5-1.3h-1.2l-0.5,1.3h-2.4v24.6h49.6v-14.9   c-0.6,0.3-1.3,0.4-2,0.4h-3.6v-0.5c-0.4,0.3-1.2,0.5-1.9,0.5h-11.4V860c0-0.2,0-0.2-0.3-0.2h-0.2v2.1h-3.7v-2.2   c-0.6,0.3-1.3,0.3-1.9,0.3h-0.4v1.9l-4.5,0l-1.1-1.3l-1.2,1.3h-7.4v-8.1h7.5l1.1,1.2l1.2-1.2h5c0.6,0,1.5,0.1,2,0.5v-0.5h4.5   c0.4,0,1.3,0.1,1.9,0.5v-0.5h6.8v0.5c0.3-0.3,1.1-0.5,1.7-0.5h3.8v0.5c0.4-0.3,1-0.5,1.7-0.5h2.6v1.2h-2.8c-1.5,0-2,0.9-2,1.7   c0,1.8,1.6,1.8,2.9,1.8c0.2,0,0.4,0,0.5,0.1c0.1,0.1,0.2,0.2,0.2,0.4c0,0.2-0.1,0.3-0.2,0.4C-770.4,859.5-770.6,859.5-770.9,859.5z   "/><path d="M-785.3,856.5c0-0.7-0.3-1-0.7-1.3c-0.5-0.2-1-0.3-1.7-0.3h-3.2v5.8h1.4v-2.1h1.5c0.5,0,0.8,0,1,0.3   c0.3,0.3,0.2,0.8,0.2,1.1v0.7h1.4v-1.2c0-0.5,0-0.8-0.2-1.1c-0.1-0.2-0.4-0.4-0.7-0.5C-785.9,857.9-785.3,857.4-785.3,856.5z    M-787.1,857.3c-0.2,0.1-0.4,0.1-0.7,0.1h-1.7v-1.3h1.7c0.2,0,0.5,0,0.7,0.1c0.2,0.1,0.3,0.3,0.3,0.5   C-786.8,857-786.9,857.2-787.1,857.3z"/><path d="M-793.9,854.9h-4.5l-1.8,1.9l-1.7-1.9h-5.6v5.8h5.5l1.8-1.9l1.7,1.9h2.7v-2h1.7c1.2,0,2.4-0.3,2.4-2   C-791.5,855.3-792.8,854.9-793.9,854.9z M-802.6,859.6h-3.4v-1.2h3.1v-1.2h-3.1v-1.1h3.5l1.5,1.7L-802.6,859.6z M-797.1,860.2   l-2.1-2.4l2.1-2.3V860.2z M-793.9,857.6h-1.8v-1.5h1.8c0.5,0,0.9,0.2,0.9,0.7C-793,857.4-793.4,857.6-793.9,857.6z"/><path d="M-785.4,846.2h1.3v-1.2h-1.3c-1,0-1.7,0.2-2.1,0.7c-0.6,0.6-0.8,1.4-0.8,2.3c0,1.1,0.3,1.7,0.7,2.2c0.5,0.5,1.3,0.6,2,0.6   h1.6l0.5-1.3h2.9l0.5,1.3h2.8v-4.4l2.6,4.4h2v-5.8h-1.4v4.1l-2.4-4.1h-2.1v5.5l-2.4-5.5h-2.1l-2,4.6h-0.6c-0.4,0-0.8-0.1-1-0.3   c-0.3-0.3-0.4-0.7-0.4-1.4c0-0.6,0.2-1.1,0.4-1.3C-786.2,846.2-785.9,846.2-785.4,846.2z M-782,845.9l1,2.3h-1.9L-782,845.9z"/><path d="M-776.3,859.5h-2.7v1.2h2.7c1.4,0,2.2-0.6,2.2-1.8c0-0.6-0.1-1-0.4-1.2c-0.3-0.3-0.8-0.5-1.6-0.5l-0.7,0   c-0.2,0-0.4,0-0.5-0.1c-0.2-0.1-0.3-0.2-0.3-0.4c0-0.2,0.1-0.3,0.2-0.4c0.1-0.1,0.3-0.1,0.6-0.1h2.6v-1.2h-2.8c-1.5,0-2,0.9-2,1.7   c0,1.8,1.6,1.8,2.9,1.8c0.2,0,0.4,0,0.5,0.1c0.1,0.1,0.2,0.2,0.2,0.4c0,0.2-0.1,0.3-0.2,0.4C-775.9,859.5-776.1,859.5-776.3,859.5z   "/><path d="M-813.6,849.4l0.5,1.3h2.8v-4.6l2,4.6h1.2l2-4.6l0,4.6h1.4v-5.8h-2.3l-1.7,4l-1.8-4h-2.3v5.5l-2.4-5.5h-2.1l-2.5,5.8h1.5   l0.5-1.3H-813.6z M-815,845.9l1,2.3h-1.9L-815,845.9z"/><path d="M-791.2,846.5c0-0.7-0.3-1-0.7-1.3c-0.5-0.3-1-0.3-1.7-0.3h-3.2v5.8h1.4v-2.1h1.5c0.5,0,0.8,0,1,0.2   c0.3,0.3,0.2,0.8,0.2,1.1l0,0.7h1.4v-1.1c0-0.5,0-0.8-0.2-1.1c-0.1-0.2-0.4-0.4-0.7-0.5C-791.9,847.9-791.2,847.4-791.2,846.5z    M-793.1,847.3c-0.2,0.1-0.4,0.1-0.7,0.1h-1.7v-1.3h1.7c0.2,0,0.5,0,0.7,0.1c0.2,0.1,0.3,0.3,0.3,0.5   C-792.8,847-792.9,847.2-793.1,847.3z"/><rect height="5.8" width="1.4" x="-790.4" y="844.9"/><polygon points="-779.9,856.2 -779.9,854.9 -784.5,854.9 -784.5,860.8 -779.9,860.8 -779.9,859.6 -783.1,859.6 -783.1,858.4    -779.9,858.4 -779.9,857.2 -783.1,857.2 -783.1,856.2  "/><polygon points="-797.8,846.1 -797.8,844.9 -802.5,844.9 -802.5,850.7 -797.8,850.7 -797.8,849.5 -801.1,849.5 -801.1,848.4    -797.9,848.4 -797.9,847.2 -801.1,847.2 -801.1,846.1  "/></g></svg>