<?xml version="1.0" ?><svg enable-background="new -822 823.1 56.7 56.7" height="56.7px" id="Layer_1" version="1.1" viewBox="-822 823.1 56.7 56.7" width="56.7px" xml:space="preserve" xmlns="http://www.w3.org/2000/svg" xmlns:xlink="http://www.w3.org/1999/xlink"><g><path d="M-793.7,828.3c-13.6,0-24.6,11-24.6,24.6c0,13.6,11,24.6,24.6,24.6c13.6,0,24.6-11,24.6-24.6   C-769,839.3-780.1,828.3-793.7,828.3z M-806.8,858.6l-2.4-9.1c-0.1-0.6-0.3-0.8-0.7-1c-0.7-0.4-1.9-0.7-2.9-1l0.1-0.3h5   c0.6,0,1.2,0.4,1.4,1.2l1.2,6.6l3.1-7.8h3.1l-4.8,11.4H-806.8z M-800.1,858.6l2.4-11.4h3l-2.4,11.4H-800.1z M-791.8,858.8   c-1.3,0-2.6-0.3-3.3-0.6l0.5-2.5c0.7,0.3,1.5,0.7,3,0.7c0.9,0,1.8-0.4,1.8-1.1c0-0.5-0.4-0.9-1.5-1.4c-1.1-0.5-2.6-1.5-2.6-3.1   c0-2.2,2.1-3.8,5-3.8c1.1,0,2.1,0.2,2.8,0.5l-0.5,2.4c-1.3-0.6-2.5-0.6-2.9-0.5c-0.9,0.1-1.2,0.5-1.3,1c0,1.3,4.2,1.5,4.1,4.5   C-786.6,857.3-788.7,858.8-791.8,858.8z M-778.9,858.6l-0.4-1.7h-3.8l-0.6,1.7h-3.1l4.4-10.6c0.2-0.5,0.7-0.8,1.3-0.8h2.5l2.4,11.4   H-778.9z"/><polygon points="-782.2,854.6 -779.8,854.6 -780.7,850.3  "/></g></svg>