<?xml version="1.0" ?><svg enable-background="new -822 823.1 56.7 56.7" height="56.7px" id="Layer_1" version="1.1" viewBox="-822 823.1 56.7 56.7" width="56.7px" xml:space="preserve" xmlns="http://www.w3.org/2000/svg" xmlns:xlink="http://www.w3.org/1999/xlink"><g><path d="M-806.9,854.7c0,0.3,0.2,0.6,0.5,0.6c0.6,0,1-0.6,1.1-1.4c-0.2,0-0.2,0-0.3,0C-806.5,853.8-806.9,854.1-806.9,854.7z"/><path d="M-794.7,851.9c-0.5,0-0.8,0.4-0.9,1h1.6C-794.1,852.8-793.9,851.9-794.7,851.9z"/><path d="M-793.7,828.3c-13.6,0-24.6,11-24.6,24.6c0,13.6,11,24.6,24.6,24.6c13.6,0,24.6-11,24.6-24.6   C-769,839.3-780.1,828.3-793.7,828.3z M-810.5,856.4l0.8-5.3l-1.9,5.3h-1l-0.1-5.3l-0.9,5.3h-1.4l1.2-6.9h2.1l0.1,4.3l1.4-4.3h2.3   l-1.1,6.9H-810.5z M-805.5,856.4l0-0.6c-0.4,0.5-0.9,0.7-1.5,0.7c-0.8,0-1.3-0.6-1.3-1.5c0-1.4,1-2.2,2.6-2.2c0.2,0,0.4,0,0.6,0   c0-0.2,0.1-0.3,0.1-0.4c0-0.4-0.3-0.5-0.9-0.5c-0.7,0-1.3,0.2-1.6,0.3c0-0.1,0.2-1.3,0.2-1.3c0.7-0.2,1.2-0.3,1.8-0.3   c1.3,0,1.9,0.6,1.9,1.6c0,0.3,0,0.6-0.1,1.1c-0.1,0.8-0.4,2.6-0.4,3C-804.5,856.4-805.5,856.4-805.5,856.4z M-801.2,853   c0.7,0.3,1,0.8,1,1.6c0,1.3-0.7,1.9-2.3,1.9c-0.9,0-1.2-0.1-1.5-0.2c0-0.1,0.2-1.3,0.2-1.3c0.5,0.2,0.9,0.2,1.3,0.2   c0.6,0,0.8-0.2,0.8-0.5c0-0.3-0.1-0.3-0.7-0.6c-0.8-0.4-1.1-0.9-1.1-1.6c0-1,0.6-1.9,2.2-1.9c0.3,0,0.9,0,1.3,0.1l-0.2,1.3   c-0.4-0.1-0.8-0.1-1.1-0.1c-0.5,0-0.7,0.2-0.7,0.5C-801.9,852.7-801.8,852.7-801.2,853z M-797.9,855.1c0.2,0,0.3,0,0.4-0.1   l-0.2,1.2c-0.4,0.1-0.7,0.2-1.1,0.2c-0.8,0-1.2-0.4-1.2-1.2c0-0.2,0.1-0.9,0.2-1.5c0.1-0.5,0.6-3.8,0.6-3.8h1.5l-0.2,0.8h0.8   l-0.2,1.3h-0.8c-0.2,1.1-0.4,2.4-0.4,2.6C-798.4,855-798.3,855.1-797.9,855.1z M-794.5,855.2c0.5,0,1-0.1,1.5-0.4l-0.2,1.4   c-0.5,0.2-1,0.2-1.5,0.2c-1.6,0-2.5-0.9-2.5-2.5c0-1.9,1.1-3.3,2.6-3.3c1.2,0,2,0.8,2,2c0,0.4-0.1,0.8-0.2,1.4h-2.9   C-795.9,854.8-795.4,855.2-794.5,855.2z M-791.2,856.4h-1.5l0.1-0.4c0.3-1.7,0.6-3.5,0.8-5.2h1.4c0,0.3-0.1,0.6-0.1,0.8   c0.5-0.7,0.8-1,1.4-0.9c-0.2,0.3-0.4,0.9-0.6,1.6C-790.6,852.3-790.7,852.9-791.2,856.4z M-785.6,856.3c-0.5,0.1-0.9,0.2-1.3,0.2   c-1.6,0-2.6-1.1-2.6-3c0-2.5,1.4-4.2,3.3-4.2c0.6,0,1.4,0.3,1.6,0.4l-0.2,1.5c-0.5-0.3-0.9-0.4-1.3-0.4c-1.1,0-1.9,1.1-1.9,2.6   c0,1,0.5,1.7,1.4,1.7c0.4,0,0.8-0.1,1.3-0.4L-785.6,856.3z M-781.1,856.4c-0.2,0-1.2,0-1.2,0l0-0.6c-0.4,0.5-0.9,0.7-1.5,0.7   c-0.8,0-1.3-0.6-1.3-1.5c0-1.4,1-2.2,2.6-2.2c0.2,0,0.4,0,0.6,0c0-0.2,0.1-0.3,0.1-0.4c0-0.4-0.3-0.5-0.9-0.5   c-0.7,0-1.3,0.2-1.6,0.3c0-0.1,0.2-1.3,0.2-1.3c0.7-0.2,1.2-0.3,1.8-0.3c1.3,0,1.9,0.6,1.9,1.6c0,0.3,0,0.6-0.1,1.1   C-780.8,854.2-781,855.9-781.1,856.4z M-779.1,856.4h-1.5l0.1-0.4c0.3-1.7,0.6-3.5,0.8-5.2h1.4c0,0.3-0.1,0.6-0.1,0.8   c0.5-0.7,0.8-1,1.4-0.9c-0.2,0.3-0.4,0.9-0.6,1.6C-778.5,852.3-778.6,852.9-779.1,856.4z M-774.7,856.4l0.1-0.5   c-0.4,0.4-0.8,0.6-1.4,0.6c-1.1,0-1.8-0.9-1.8-2.3c0-1.9,1.1-3.4,2.4-3.4c0.6,0,1,0.2,1.4,0.8l0.3-2h1.5l-1.1,6.9H-774.7z"/><path d="M-783.7,854.7c0,0.3,0.2,0.6,0.5,0.6c0.6,0,1-0.6,1.1-1.4c-0.2,0-0.2,0-0.3,0C-783.3,853.8-783.7,854.1-783.7,854.7z"/><path d="M-775.1,852.1c-0.7,0-1.1,0.8-1.1,1.9c0,0.7,0.3,1.1,0.8,1.1c0.7,0,1.2-0.8,1.2-1.9C-774.3,852.5-774.6,852.1-775.1,852.1z   "/></g></svg>