<?xml version="1.0" ?><svg enable-background="new -822 823.1 56.7 56.7" height="56.7px" id="Layer_1" version="1.1" viewBox="-822 823.1 56.7 56.7" width="56.7px" xml:space="preserve" xmlns="http://www.w3.org/2000/svg" xmlns:xlink="http://www.w3.org/1999/xlink"><path d="M-810.6,837.4C-810.6,837.4-810.6,837.4-810.6,837.4h4.6c0.3,0,0.5-0.2,0.5-0.5c0,0-0.1-3.9-0.1-5v0c0-0.9,0.2-1.7,0.5-2.3  l0.2-0.3c0,0,0,0-0.1,0l-8.9,8.8c0,0,0,0,0,0.1c0.2-0.1,0.4-0.2,0.5-0.2C-812.7,837.6-811.7,837.4-810.6,837.4z M-775,836.5  c-0.4-1.9-1.5-2.9-2.6-3.3c-1.1-0.4-3.4-0.8-6.3-1.2c-2.3-0.3-5-0.3-6.7-0.2c-0.2-1.3-1.1-2.6-2.2-3c-2.8-1.1-7.2-0.9-8.3-0.5  c-0.9,0.2-1.9,0.8-2.4,1.5c-0.4,0.5-0.6,1.2-0.6,2.1c0,0.5,0,1.8,0,2.9c0,1.1,0,2.1,0,2.1c0,1-0.8,1.8-1.8,1.8h-4.6  c-1,0-1.7,0.2-2.3,0.4c-0.6,0.3-1,0.6-1.3,1c-0.6,0.8-0.7,1.8-0.7,2.9c0,0,0,0.8,0.2,2.5c0.2,1.3,1.5,10.1,2.8,12.8  c0.5,1,0.8,1.5,1.8,1.9c2.2,0.9,7.3,2,9.6,2.3c2.4,0.3,3.8,0.9,4.7-0.9c0,0,0.2-0.5,0.4-1.1c0.8-2.3,0.9-4.4,0.9-5.9  c0-0.2,0.2-0.2,0.2,0c0,1.1-0.2,4.8,2.6,5.8c1.1,0.4,3.4,0.7,5.8,1c2.1,0.2,3.7,1.1,3.7,6.5c0,3.3-0.7,3.8-4.3,3.8  c-2.9,0-4.1,0.1-4.1-2.3c0-1.9,1.9-1.7,3.3-1.7c0.6,0,0.2-0.5,0.2-1.6c0-1.2,0.7-1.8,0-1.8c-4.8-0.1-7.6,0-7.6,6  c0,5.4,2.1,6.4,8.9,6.4c5.3,0,7.2-0.2,9.4-7c0.4-1.3,1.5-5.5,2.1-12.4C-773.6,853-774.4,839.8-775,836.5z M-784.3,851  c-0.7,0-1.3,0-1.9,0.1c0.2-1.3,0.7-3,2.7-2.9c2.2,0.1,2.5,2.1,2.5,3.5C-782,851.3-783.1,851.1-784.3,851z"/></svg>