<?xml version="1.0" ?><svg height="56.6934px" id="Layer_1" style="enable-background:new 0 0 56.6934 56.6934;" version="1.1" viewBox="0 0 56.6934 56.6934" width="56.6934px" xml:space="preserve" xmlns="http://www.w3.org/2000/svg" xmlns:xlink="http://www.w3.org/1999/xlink"><g><path d="M27.9814,20.2903h-3.6893v7.5479h3.3638c4.3041,0,5.7509-0.4334,5.7509-4.0809   C33.4068,20.832,32.4664,20.2903,27.9814,20.2903z"/><path d="M43.837,3.8972H13.9594c-5.5003,0-9.9592,4.4589-9.9592,9.9592V43.734c0,5.5003,4.4589,9.9592,9.9592,9.9592H43.837   c5.5003,0,9.9592-4.4589,9.9592-9.9592V13.8564C53.7962,8.3561,49.3373,3.8972,43.837,3.8972z M29.3196,32.2802h-5.0275v9.4619   H18.939V15.8483h9.8019c5.3892,0,10.0913,0.5056,10.0913,8.1257C38.8322,31.3052,34.4557,32.2802,29.3196,32.2802z"/></g></svg>